dummy_motion.mot																							
nRows=68																							
nColumns=24																							
name dummy_motion.mot																							
datacolumns 24																							
datarows 68																							
range 0.01 0.68																							
endheader																							
time	lower_torso_RX	lower_torso_RY	lower_torso_RZ	lower_torso_TX	lower_torso_TY	lower_torso_TZ	hip_flex_r	hip_add_r	hip_rot_r	knee_flex_r	ankle_flex_r	hip_flex_l	hip_add_l	hip_rot_l	knee_flex_l	ankle_flex_l	lumbar_pitch	lumbar_roll	lumbar_yaw	subt_angle_r	subt_angle_l	toe_angle_r	toe_angle_l
0.01	0	0	0	0	0	0	76.31109287	9.2889311	13.57968403	41.30354652	-26.72695399	76.31109287	9.2889311	13.57968403	41.30354652	-26.72695399	0	0	0	-25.84830675	-25.84830675	0	0
0.02	0	0	0	0	0	0	-5.306432822	20.68402777	-12.19234418	76.26855311	-24.80133335	-5.306432822	20.68402777	-12.19234418	76.26855311	-24.80133335	0	0	0	2.369724118	2.369724118	0	0
0.03	0	0	0	0	0	0	90.88090589	-35.02242633	-35.82388277	46.23446003	3.225308983	90.88090589	-35.02242633	-35.82388277	46.23446003	3.225308983	0	0	0	19.97340102	19.97340102	0	0
0.04	0	0	0	0	0	0	92.26220998	-43.32922371	-38.09959367	43.76151989	-4.314635631	92.26220998	-43.32922371	-38.09959367	43.76151989	-4.314635631	0	0	0	-9.117621665	-9.117621665	0	0
0.05	0	0	0	0	0	0	4.743306928	35.96356501	-3.369157824	20.06779849	18.30137941	4.743306928	35.96356501	-3.369157824	20.06779849	18.30137941	0	0	0	7.436356716	7.436356716	0	0
0.06	0	0	0	0	0	0	0.899006718	-20.6710966	-26.78398057	-2.805333885	-10.15301964	0.899006718	-20.6710966	-26.78398057	-2.805333885	-10.15301964	0	0	0	-26.35737743	-26.35737743	0	0
0.07	0	0	0	0	0	0	78.01008725	-39.32402533	-37.34850847	19.52132549	6.711708792	78.01008725	-39.32402533	-37.34850847	19.52132549	6.711708792	0	0	0	-32.65099388	-32.65099388	0	0
0.08	0	0	0	0	0	0	41.54900715	-32.51509918	23.04541095	116.9192804	0.709899498	41.54900715	-32.51509918	23.04541095	116.9192804	0.709899498	0	0	0	9.206591613	9.206591613	0	0
0.09	0	0	0	0	0	0	26.53809884	15.37372888	-28.80334797	84.03769699	14.35934414	26.53809884	15.37372888	-28.80334797	84.03769699	14.35934414	0	0	0	-4.679487292	-4.679487292	0	0
0.1	0	0	0	0	0	0	59.05972451	-31.20051187	1.691049876	88.00065632	15.5693687	59.05972451	-31.20051187	1.691049876	88.00065632	15.5693687	0	0	0	-24.44688984	-24.44688984	0	0
0.11	0	0	0	0	0	0	12.28058052	-26.97681606	6.225719175	7.073716377	24.38477198	12.28058052	-26.97681606	6.225719175	7.073716377	24.38477198	0	0	0	1.323603714	1.323603714	0	0
0.12	0	0	0	0	0	0	19.83135141	14.14330911	2.340631891	113.0758521	-25.18112665	19.83135141	14.14330911	2.340631891	113.0758521	-25.18112665	0	0	0	-4.031545991	-4.031545991	0	0
0.13	0	0	0	0	0	0	-10.87032269	-6.286999525	-23.91330642	105.5564366	-20.31349489	-10.87032269	-6.286999525	-23.91330642	105.5564366	-20.31349489	0	0	0	-23.88680872	-23.88680872	0	0
0.14	0	0	0	0	0	0	-9.764058087	-48.10089804	-23.23262002	109.0987419	45.26837691	-9.764058087	-48.10089804	-23.23262002	109.0987419	45.26837691	0	0	0	-18.47096495	-18.47096495	0	0
0.15	0	0	0	0	0	0	85.07730611	-42.49902941	24.78595202	-7.410723356	34.72194015	85.07730611	-42.49902941	24.78595202	-7.410723356	34.72194015	0	0	0	-22.58878902	-22.58878902	0	0
0.16	0	0	0	0	0	0	88.39601659	-39.98779205	34.63930108	46.32417339	23.32520972	88.39601659	-39.98779205	34.63930108	46.32417339	23.32520972	0	0	0	11.13533232	11.13533232	0	0
0.17	0	0	0	0	0	0	16.84425395	-45.51966139	-5.558935833	-7.688079401	9.760858705	16.84425395	-45.51966139	-5.558935833	-7.688079401	9.760858705	0	0	0	18.18271854	18.18271854	0	0
0.18	0	0	0	0	0	0	42.28663469	-27.78938701	-34.41035816	110.8893789	48.19453654	42.28663469	-27.78938701	-34.41035816	110.8893789	48.19453654	0	0	0	-5.292913307	-5.292913307	0	0
0.19	0	0	0	0	0	0	0.61369302	-3.505956303	-25.42079093	11.95957476	-22.97886711	0.61369302	-3.505956303	-25.42079093	11.95957476	-22.97886711	0	0	0	-24.98124051	-24.98124051	0	0
0.2	0	0	0	0	0	0	59.20284219	34.66317313	1.097590932	59.99786929	28.60471108	59.20284219	34.66317313	1.097590932	59.99786929	28.60471108	0	0	0	10.65667202	10.65667202	0	0
0.21	0	0	0	0	0	0	8.163272892	-12.26132595	-11.32341481	86.52346006	-19.54586762	8.163272892	-12.26132595	-11.32341481	86.52346006	-19.54586762	0	0	0	6.298634554	6.298634554	0	0
0.22	0	0	0	0	0	0	73.35279104	-8.003864405	-1.391063141	117.6455146	-21.15156003	73.35279104	-8.003864405	-1.391063141	117.6455146	-21.15156003	0	0	0	-26.4674164	-26.4674164	0	0
0.23	0	0	0	0	0	0	85.15669742	5.929169898	-33.5972718	61.3004602	31.46662003	85.15669742	5.929169898	-33.5972718	61.3004602	31.46662003	0	0	0	11.85819268	11.85819268	0	0
0.24	0	0	0	0	0	0	70.69817205	10.86716956	-23.37984478	92.00850702	29.57244004	70.69817205	10.86716956	-23.37984478	92.00850702	29.57244004	0	0	0	-37.83555878	-37.83555878	0	0
0.25	0	0	0	0	0	0	86.8167043	17.86478222	31.99924947	25.74501579	-11.98629468	86.8167043	17.86478222	31.99924947	25.74501579	-11.98629468	0	0	0	-10.97853869	-10.97853869	0	0
0.26	0	0	0	0	0	0	44.40466268	-17.7870144	8.571613154	54.52251586	-7.237733182	44.40466268	-17.7870144	8.571613154	54.52251586	-7.237733182	0	0	0	-14.62096418	-14.62096418	0	0
0.27	0	0	0	0	0	0	9.016621431	-26.79953123	27.73295082	12.37530242	-16.32664922	9.016621431	-26.79953123	27.73295082	12.37530242	-16.32664922	0	0	0	7.378889894	7.378889894	0	0
0.28	0	0	0	0	0	0	69.27975681	34.28211107	-12.93445939	76.33791601	-24.07648023	69.27975681	34.28211107	-12.93445939	76.33791601	-24.07648023	0	0	0	-39.70752631	-39.70752631	0	0
0.29	0	0	0	0	0	0	92.07762577	-38.76278314	2.483382884	-3.215731251	-22.76572939	92.07762577	-38.76278314	2.483382884	-3.215731251	-22.76572939	0	0	0	-2.732853277	-2.732853277	0	0
0.3	0	0	0	0	0	0	58.09494781	-30.37530311	-5.408795224	36.79300457	3.510324374	58.09494781	-30.37530311	-5.408795224	36.79300457	3.510324374	0	0	0	-6.04857286	-6.04857286	0	0
0.31	0	0	0	0	0	0	75.30143112	27.50409711	10.97786629	95.98138835	29.83897911	75.30143112	27.50409711	10.97786629	95.98138835	29.83897911	0	0	0	5.528287952	5.528287952	0	0
0.32	0	0	0	0	0	0	9.195355733	-28.42675357	21.60073757	-6.074732159	-1.173253235	9.195355733	-28.42675357	21.60073757	-6.074732159	-1.173253235	0	0	0	-4.134079223	-4.134079223	0	0
0.33	0	0	0	0	0	0	91.30841953	-33.31512005	-15.55113748	78.0672026	23.19336396	91.30841953	-33.31512005	-15.55113748	78.0672026	23.19336396	0	0	0	-19.83672937	-19.83672937	0	0
0.34	0	0	0	0	0	0	58.64885756	-42.64603553	24.95812212	80.71244715	-15.32900419	58.64885756	-42.64603553	24.95812212	80.71244715	-15.32900419	0	0	0	-27.8098533	-27.8098533	0	0
0.35	0	0	0	0	0	0	31.9082443	11.17932528	-35.28209841	98.12572671	17.57111879	31.9082443	11.17932528	-35.28209841	98.12572671	17.57111879	0	0	0	-28.06692956	-28.06692956	0	0
0.36	0	0	0	0	0	0	31.62066681	-31.51560677	22.17708233	39.57727587	-22.1329083	31.62066681	-31.51560677	22.17708233	39.57727587	-22.1329083	0	0	0	-9.542008728	-9.542008728	0	0
0.37	0	0	0	0	0	0	73.96306834	4.192221714	25.43063157	43.89716478	-20.01391434	73.96306834	4.192221714	25.43063157	43.89716478	-20.01391434	0	0	0	-30.68385239	-30.68385239	0	0
0.38	0	0	0	0	0	0	18.25361043	23.26754578	-33.55552964	58.74231843	11.21784319	18.25361043	23.26754578	-33.55552964	58.74231843	11.21784319	0	0	0	-33.24543682	-33.24543682	0	0
0.39	0	0	0	0	0	0	74.14512503	-37.01189985	0.211441574	35.45635611	9.076097181	74.14512503	-37.01189985	0.211441574	35.45635611	9.076097181	0	0	0	15.06407938	15.06407938	0	0
0.4	0	0	0	0	0	0	58.96581162	-20.70205218	10.17308318	34.07979246	1.266097632	58.96581162	-20.70205218	10.17308318	34.07979246	1.266097632	0	0	0	-32.79908603	-32.79908603	0	0
0.41	0	0	0	0	0	0	92.85800396	-21.84242938	-16.14126218	60.36157963	37.59733335	92.85800396	-21.84242938	-16.14126218	60.36157963	37.59733335	0	0	0	-9.557206006	-9.557206006	0	0
0.42	0	0	0	0	0	0	-4.415634658	-38.13010757	-11.4733475	67.41749881	31.73138452	-4.415634658	-38.13010757	-11.4733475	67.41749881	31.73138452	0	0	0	-17.43474134	-17.43474134	0	0
0.43	0	0	0	0	0	0	48.73053169	-32.36141729	-27.5543485	24.17200438	-14.18841994	48.73053169	-32.36141729	-27.5543485	24.17200438	-14.18841994	0	0	0	9.575908059	9.575908059	0	0
0.44	0	0	0	0	0	0	1.29666804	-23.5551178	24.97970743	118.7816982	8.633596675	1.29666804	-23.5551178	24.97970743	118.7816982	8.633596675	0	0	0	-26.82920613	-26.82920613	0	0
0.45	0	0	0	0	0	0	63.4449925	35.44879691	-17.24816304	104.9436121	36.57983976	63.4449925	35.44879691	-17.24816304	104.9436121	36.57983976	0	0	0	-0.001873765	-0.001873765	0	0
0.46	0	0	0	0	0	0	-3.777091347	-13.81929722	8.189410886	111.9367446	-24.04122677	-3.777091347	-13.81929722	8.189410886	111.9367446	-24.04122677	0	0	0	-27.46744268	-27.46744268	0	0
0.47	0	0	0	0	0	0	54.95775456	32.06689763	24.29121646	3.98478678	2.64982511	54.95775456	32.06689763	24.29121646	3.98478678	2.64982511	0	0	0	6.379529493	6.379529493	0	0
0.48	0	0	0	0	0	0	81.40361071	33.59066751	1.809782259	111.0773427	-2.557589101	81.40361071	33.59066751	1.809782259	111.0773427	-2.557589101	0	0	0	-29.00092172	-29.00092172	0	0
0.49	0	0	0	0	0	0	6.622815951	23.02905882	-14.90006063	77.03076658	20.09412867	6.622815951	23.02905882	-14.90006063	77.03076658	20.09412867	0	0	0	-12.31240286	-12.31240286	0	0
0.5	0	0	0	0	0	0	63.54185182	-3.394391584	15.72352614	30.99641681	-19.69593235	63.54185182	-3.394391584	15.72352614	30.99641681	-19.69593235	0	0	0	-37.45537871	-37.45537871	0	0
0.51	0	0	0	0	0	0	-3.337223294	10.1151192	-24.77777527	113.7171299	11.67995432	-3.337223294	10.1151192	-24.77777527	113.7171299	11.67995432	0	0	0	4.241251817	4.241251817	0	0
0.52	0	0	0	0	0	0	48.12164534	8.304612238	33.89900691	114.4685235	-15.20675098	48.12164534	8.304612238	33.89900691	114.4685235	-15.20675098	0	0	0	-32.01738377	-32.01738377	0	0
0.53	0	0	0	0	0	0	24.9565062	31.85479998	31.27412284	94.76814632	17.51403644	24.9565062	31.85479998	31.27412284	94.76814632	17.51403644	0	0	0	17.5631352	17.5631352	0	0
0.54	0	0	0	0	0	0	-3.972425065	5.723466682	-7.421501148	15.17059804	-29.44485717	-3.972425065	5.723466682	-7.421501148	15.17059804	-29.44485717	0	0	0	-15.06296427	-15.06296427	0	0
0.55	0	0	0	0	0	0	-4.727122123	-20.88149321	22.46459661	112.2931178	48.81080988	-4.727122123	-20.88149321	22.46459661	112.2931178	48.81080988	0	0	0	-5.017586328	-5.017586328	0	0
0.56	0	0	0	0	0	0	71.65658723	-47.31579701	-1.199626929	7.082984812	8.772634467	71.65658723	-47.31579701	-1.199626929	7.082984812	8.772634467	0	0	0	-16.96484525	-16.96484525	0	0
0.57	0	0	0	0	0	0	31.62450721	-17.86101611	-10.17806044	97.73159366	-14.58837603	31.62450721	-17.86101611	-10.17806044	97.73159366	-14.58837603	0	0	0	18.87156264	18.87156264	0	0
0.58	0	0	0	0	0	0	73.70198796	12.62311479	16.88559554	58.2112109	-9.270912452	73.70198796	12.62311479	16.88559554	58.2112109	-9.270912452	0	0	0	-30.15661102	-30.15661102	0	0
0.59	0	0	0	0	0	0	52.08082505	13.92785593	13.8712175	70.06804025	-28.01761522	52.08082505	13.92785593	13.8712175	70.06804025	-28.01761522	0	0	0	14.49141001	14.49141001	0	0
0.6	0	0	0	0	0	0	91.5907129	-23.28508246	19.46939962	23.13266791	-14.02735334	91.5907129	-23.28508246	19.46939962	23.13266791	-14.02735334	0	0	0	-29.3684239	-29.3684239	0	0
0.61	0	0	0	0	0	0	-4.820349467	-44.77532448	-3.235481639	90.68746278	-27.53236363	-4.820349467	-44.77532448	-3.235481639	90.68746278	-27.53236363	0	0	0	-35.31605918	-35.31605918	0	0
0.62	0	0	0	0	0	0	-9.283996348	-26.18605334	28.28308362	79.61140106	-27.1979029	-9.283996348	-26.18605334	28.28308362	79.61140106	-27.1979029	0	0	0	-14.73279318	-14.73279318	0	0
0.63	0	0	0	0	0	0	35.12221869	-16.04400374	-22.08911087	-9.672064803	-24.39357049	35.12221869	-16.04400374	-22.08911087	-9.672064803	-24.39357049	0	0	0	-31.3021588	-31.3021588	0	0
0.64	0	0	0	0	0	0	-9.064250453	-7.716604218	13.91035228	101.9835586	23.87084514	-9.064250453	-7.716604218	13.91035228	101.9835586	23.87084514	0	0	0	-33.4323217	-33.4323217	0	0
0.65	0	0	0	0	0	0	56.3637263	-35.29694014	4.466429219	68.40641693	26.46807081	56.3637263	-35.29694014	4.466429219	68.40641693	26.46807081	0	0	0	-28.32465376	-28.32465376	0	0
0.66	0	0	0	0	0	0	86.10162949	28.32759784	-13.30208307	0.424220684	18.32235506	86.10162949	28.32759784	-13.30208307	0.424220684	18.32235506	0	0	0	-4.940206262	-4.940206262	0	0
0.67	0	0	0	0	0	0	91.47342448	-32.39119269	22.71496115	47.27887384	14.99481157	91.47342448	-32.39119269	22.71496115	47.27887384	14.99481157	0	0	0	-7.00307061	-7.00307061	0	0
0.68	0	0	0	0	0	0	-4.637673198	-48.05525248	-5.17917859	112.3323726	-22.79120238	-4.637673198	-48.05525248	-5.17917859	112.3323726	-22.79120238	0	0	0	-8.757998661	-8.757998661	0	0
